<?xml version="1.0" standalone="no"?>
<!DOCTYPE svg PUBLIC "-//W3C//DTD SVG 20010904//EN"
 "http://www.w3.org/TR/2001/REC-SVG-20010904/DTD/svg10.dtd">
<svg version="1.0" xmlns="http://www.w3.org/2000/svg"
 width="3546.000000pt" height="1011.000000pt" viewBox="0 0 3546.000000 1011.000000"
 preserveAspectRatio="xMidYMid meet">

<g transform="translate(0.000000,1011.000000) scale(0.100000,-0.100000)"
fill="#000000" stroke="none">
<path d="M4847 10050 c-65 -116 -169 -222 -298 -306 -110 -71 -227 -109 -514
-164 -515 -99 -662 -148 -875 -288 -210 -139 -365 -338 -440 -564 l-23 -68
-61 49 c-147 116 -330 214 -519 276 -60 19 -114 35 -122 35 -36 0 -59 -357
-35 -560 10 -86 28 -202 36 -231 4 -14 -12 -17 -118 -22 -247 -10 -471 -109
-696 -305 -126 -111 -228 -252 -446 -617 -97 -164 -296 -456 -349 -513 -36
-38 -175 -100 -278 -124 l-97 -21 63 -82 c34 -45 77 -113 96 -151 31 -63 34
-77 33 -159 0 -151 -22 -385 -58 -623 -54 -353 -59 -410 -53 -570 9 -260 72
-465 203 -663 53 -80 203 -226 302 -293 40 -27 72 -52 71 -55 0 -3 -41 -35
-90 -71 -144 -104 -321 -296 -422 -456 l-26 -42 97 -45 c189 -87 324 -124 638
-173 l32 -4 -19 -62 c-86 -274 -56 -569 86 -850 90 -179 162 -268 487 -604
360 -373 432 -501 433 -777 0 -81 4 -126 10 -123 212 87 266 100 410 93 163
-8 276 -45 705 -232 200 -87 367 -146 490 -172 129 -27 404 -25 522 5 136 34
243 79 343 146 l92 62 29 -86 c62 -183 177 -383 317 -549 l70 -84 29 34 c152
180 309 438 373 614 10 28 21 53 24 57 4 4 38 -13 76 -39 200 -134 418 -192
679 -180 237 11 350 44 765 224 369 159 513 203 668 203 122 0 190 -18 369
-96 8 -4 13 36 16 138 9 288 73 395 483 819 118 121 241 254 275 295 210 262
322 603 290 885 -10 87 -38 217 -60 273 -11 29 6 36 87 36 139 0 367 53 543
124 63 26 119 51 124 56 9 9 -82 155 -147 235 -97 118 -215 237 -330 331 l-37
30 72 50 c91 62 232 200 285 279 170 253 238 565 199 905 -10 80 -30 228 -46
330 -16 102 -34 241 -40 310 -6 69 -15 175 -21 236 -9 103 -9 116 11 175 25
74 73 156 136 234 30 36 41 56 32 59 -7 2 -53 13 -101 24 -98 23 -222 80 -258
118 -54 58 -284 402 -394 590 -137 234 -230 368 -327 469 -246 258 -518 385
-827 385 -104 0 -113 1 -106 18 36 93 71 283 80 437 6 97 -8 352 -21 364 -7 7
-175 -40 -267 -75 -132 -51 -306 -141 -443 -231 -20 -13 -22 -10 -49 59 -124
323 -428 582 -815 694 -47 14 -218 52 -380 84 -447 90 -529 117 -677 229 -98
74 -157 138 -219 237 -25 41 -47 74 -48 74 0 0 -14 -23 -29 -50z m86 -200 c57
-70 206 -185 302 -234 92 -46 242 -87 500 -137 472 -91 619 -140 812 -271 294
-198 453 -502 470 -899 6 -144 -4 -230 -37 -330 -20 -57 -62 -119 -540 -794
-186 -262 -195 -273 -198 -240 -2 19 -6 35 -10 35 -4 0 -24 -11 -44 -25 -20
-14 -39 -25 -42 -25 -4 0 -6 27 -6 60 0 33 -3 60 -7 60 -5 0 -27 -11 -51 -25
l-44 -25 7 33 c4 17 26 52 50 77 225 238 508 696 577 935 32 112 32 341 0 460
-83 305 -283 471 -677 560 -270 61 -340 80 -563 155 -301 102 -370 144 -494
302 -34 43 -62 78 -63 78 -1 0 -19 -25 -40 -55 -55 -80 -172 -186 -252 -227
-70 -37 -435 -161 -578 -197 -44 -11 -135 -32 -203 -46 -256 -54 -413 -127
-538 -250 -93 -91 -140 -173 -174 -301 -50 -192 -47 -356 10 -526 67 -200 261
-526 454 -762 45 -54 90 -111 102 -125 19 -24 43 -131 29 -131 -3 0 -16 6 -28
14 -12 8 -32 17 -44 21 -21 6 -23 3 -23 -34 0 -23 -2 -41 -5 -41 -4 0 -20 7
-37 16 -24 13 -36 14 -49 6 -15 -10 -39 18 -182 216 -527 730 -527 730 -564
880 -25 101 -22 318 6 450 69 329 212 545 471 714 174 114 304 159 675 233
514 103 596 130 760 252 44 33 109 91 145 131 36 39 67 71 70 71 3 0 26 -27
53 -59z m193 -617 c43 -22 176 -72 294 -111 256 -84 252 -83 455 -128 88 -19
196 -46 240 -60 331 -108 487 -321 487 -665 0 -167 -42 -294 -168 -516 -136
-239 -275 -431 -431 -597 l-82 -88 6 94 c5 79 4 91 -8 82 -8 -6 -32 -24 -54
-41 l-40 -31 3 87 3 86 -77 -80 c-43 -44 -74 -72 -71 -63 11 32 20 186 12 234
l-7 49 -54 -58 -54 -58 7 127 6 127 -34 -27 c-19 -15 -53 -52 -75 -82 l-39
-55 -6 148 c-9 213 -15 225 -79 140 l-35 -47 -6 112 c-6 112 -38 259 -63 293
-14 19 -16 16 -82 -92 l-31 -52 -6 132 c-6 157 -23 240 -81 407 -70 201 -168
464 -176 473 -4 4 -17 -20 -30 -55 -12 -35 -58 -156 -101 -270 -99 -259 -127
-373 -136 -539 l-6 -127 -46 69 c-25 38 -48 69 -51 69 -4 0 -19 -39 -35 -87
-23 -75 -28 -110 -33 -236 l-5 -148 -32 48 c-18 26 -46 60 -62 76 l-30 28 -11
-38 c-15 -52 -31 -153 -38 -244 l-5 -76 -55 54 c-30 29 -59 53 -64 53 -22 0
-24 -167 -3 -260 6 -25 5 -25 -28 6 -37 34 -109 84 -121 84 -11 0 -10 -106 1
-152 10 -44 8 -46 -22 -17 -35 33 -87 72 -91 68 -2 -2 -1 -39 3 -81 4 -43 5
-78 4 -78 -2 0 -22 14 -45 30 -49 35 -68 38 -68 8 0 -21 0 -21 -21 -2 -41 37
-223 270 -290 372 -96 144 -213 353 -248 442 -46 115 -65 227 -58 340 23 378
209 571 647 665 227 49 320 75 558 155 271 92 341 128 446 234 l71 71 86 -81
c58 -54 112 -94 165 -121z m2568 -339 c11 -29 6 -248 -8 -348 -8 -54 -27 -154
-42 -221 l-28 -122 -76 -12 c-120 -21 -238 -58 -343 -111 l-97 -48 7 66 c13
114 5 328 -16 425 l-19 89 92 60 c110 73 300 167 416 207 101 35 106 36 114
15z m-5552 -20 c141 -51 311 -147 463 -262 33 -25 61 -46 63 -47 1 -1 -4 -42
-13 -90 -17 -101 -20 -305 -4 -389 6 -32 9 -59 7 -61 -2 -2 -57 23 -123 56
-121 59 -260 102 -380 117 l-60 7 -17 95 c-24 138 -40 352 -33 450 6 94 14
150 20 150 2 0 37 -12 77 -26z m2811 -234 c124 -330 143 -431 134 -685 -4 -88
-18 -241 -32 -340 -14 -99 -32 -235 -41 -302 l-17 -123 -113 0 -112 0 -6 38
c-3 20 -24 150 -46 287 -72 448 -75 650 -14 861 34 118 166 456 175 446 4 -4
36 -86 72 -182z m-2740 -551 c190 -38 358 -116 470 -219 30 -28 102 -117 159
-198 57 -81 209 -292 336 -470 172 -239 232 -330 232 -351 0 -16 3 -43 6 -61
l7 -32 -39 20 c-35 18 -114 44 -114 38 0 -1 7 -26 16 -55 8 -29 14 -55 12 -56
-2 -2 -25 3 -50 12 -45 14 -50 20 -94 102 -100 185 -250 394 -430 601 -220
253 -419 358 -710 376 -200 13 -367 -52 -520 -203 -80 -79 -137 -155 -239
-319 -96 -153 -140 -214 -322 -445 -160 -203 -224 -253 -409 -318 l-103 -37
30 -44 c46 -69 94 -168 119 -245 21 -65 22 -88 21 -310 -2 -254 -11 -390 -38
-570 -24 -158 -22 -387 5 -485 41 -154 114 -270 218 -351 201 -155 387 -217
624 -206 284 13 749 129 1024 256 48 22 92 38 99 36 7 -2 25 -6 41 -10 l30 -6
-45 -39 c-50 -44 -47 -51 29 -72 23 -7 42 -15 42 -18 0 -3 -16 -21 -35 -40
-23 -23 -31 -36 -23 -41 7 -4 -7 -12 -33 -19 -24 -7 -132 -39 -239 -72 -107
-33 -289 -87 -405 -120 -115 -33 -285 -84 -377 -114 -145 -47 -178 -54 -247
-54 -231 0 -482 104 -713 297 -209 174 -326 416 -359 737 -13 131 -3 252 46
573 46 294 57 414 59 624 l1 175 -50 100 c-27 54 -51 102 -53 105 -1 3 26 16
60 29 89 31 156 72 205 122 70 73 257 343 375 543 179 302 260 419 367 526 53
52 126 116 162 142 137 97 304 166 454 186 96 13 280 4 398 -20z m5716 21
c299 -38 591 -232 791 -525 26 -38 113 -180 193 -314 81 -134 175 -282 210
-330 35 -47 84 -115 109 -151 25 -36 61 -80 79 -99 36 -34 136 -89 204 -111
57 -18 57 -18 35 -51 -37 -51 -91 -179 -96 -227 -9 -77 24 -473 56 -677 81
-510 80 -677 -7 -938 -51 -153 -118 -261 -233 -378 -152 -152 -338 -265 -539
-326 -73 -22 -106 -26 -216 -27 l-130 -1 -185 62 c-102 33 -237 75 -300 93
-63 17 -248 73 -410 122 -266 82 -297 94 -326 124 -33 36 -33 44 0 44 35 0 96
20 96 32 0 6 -18 28 -40 51 -22 22 -39 41 -38 41 2 1 24 7 51 14 46 12 50 11
125 -27 91 -46 334 -129 482 -165 253 -61 377 -79 550 -80 187 -1 239 9 377
74 233 109 372 260 428 465 28 104 31 324 5 505 -39 283 -52 706 -25 835 16
77 65 187 120 269 19 29 35 56 35 59 0 3 -26 13 -57 22 -105 30 -234 99 -301
162 -80 75 -289 341 -399 508 -47 72 -115 175 -151 230 -77 116 -220 264 -304
313 -31 18 -89 45 -130 60 -65 24 -87 26 -203 26 -330 -2 -536 -113 -808 -437
-162 -193 -316 -416 -395 -573 -26 -51 -37 -63 -72 -77 -42 -16 -42 -16 -36 6
3 12 9 39 12 60 l7 38 -59 -26 c-33 -14 -63 -30 -68 -36 -20 -19 -23 -7 -10
43 17 63 17 85 3 90 -5 2 141 215 325 473 185 259 343 480 352 493 23 33 127
108 204 147 189 95 470 142 689 115z m-3354 -186 c38 -86 53 -149 100 -440 25
-153 45 -282 45 -286 0 -4 -26 -9 -57 -13 -32 -3 -68 -8 -79 -10 -20 -5 -23 3
-47 133 -34 182 -37 202 -46 328 -8 114 1 265 19 336 11 40 13 42 27 23 8 -11
25 -43 38 -71z m684 2 c16 -85 14 -297 -4 -424 -20 -145 -53 -314 -62 -323 -8
-7 -132 7 -141 16 -8 8 69 536 89 606 20 72 62 173 81 196 16 19 23 5 37 -71z
m-3059 -256 c206 -59 344 -171 591 -482 123 -155 303 -435 324 -506 6 -21 4
-22 -19 -16 -32 8 -32 1 -7 -71 11 -30 18 -55 16 -55 -1 0 -20 7 -41 17 -22 9
-62 22 -91 29 l-52 12 9 -24 c5 -13 19 -42 31 -65 14 -28 16 -40 7 -36 -81 34
-138 55 -160 61 l-28 6 24 -55 c14 -30 39 -75 56 -100 l32 -46 -79 39 c-75 38
-223 96 -223 88 0 -12 43 -102 60 -126 11 -16 20 -30 20 -33 0 -2 -37 8 -82
24 -87 30 -208 60 -208 53 0 -9 43 -90 63 -118 20 -28 20 -29 1 -24 -165 48
-220 59 -326 65 -68 3 -118 2 -118 -3 0 -5 25 -39 54 -75 l54 -66 -95 28
c-138 42 -242 53 -428 45 -88 -3 -247 -9 -352 -12 l-193 -7 73 -49 c39 -28
140 -103 222 -168 248 -194 358 -259 544 -320 47 -15 79 -30 71 -33 -8 -3 -44
-12 -80 -21 -100 -26 -101 -27 -29 -79 74 -52 138 -85 227 -117 l63 -23 -56
-31 -57 -30 54 -24 c29 -13 91 -34 138 -46 l85 -23 -58 -17 c-32 -9 -70 -21
-85 -27 l-27 -11 35 -18 c29 -16 68 -30 180 -66 9 -3 -5 -16 -38 -35 -29 -16
-52 -33 -52 -38 0 -8 125 -51 199 -69 l33 -7 -76 -34 c-42 -18 -76 -37 -76
-41 0 -4 39 -20 88 -35 48 -15 96 -31 107 -35 l20 -8 -20 -8 c-33 -13 -115
-65 -115 -73 0 -5 32 -17 71 -27 l72 -20 -129 -58 c-280 -127 -569 -210 -892
-257 -123 -17 -330 -7 -412 21 -202 68 -366 200 -434 350 -62 137 -70 297 -30
603 24 178 27 238 28 507 l1 305 -28 80 c-16 44 -41 103 -56 131 l-28 52 101
50 c128 64 194 124 340 306 163 205 215 277 322 448 52 84 121 184 152 222
100 123 234 217 348 246 66 16 279 5 364 -20z m2190 -52 c17 -31 41 -95 54
-142 25 -83 70 -306 64 -311 -5 -3 -121 -25 -122 -22 -29 76 -66 218 -71 268
-5 63 10 263 22 282 7 11 15 0 53 -75z m3551 62 c90 -27 172 -80 257 -163 69
-68 119 -137 294 -407 102 -156 368 -491 434 -545 62 -50 139 -95 204 -121 25
-9 46 -18 48 -20 2 -1 -10 -28 -26 -60 -39 -79 -70 -175 -81 -256 -15 -108 4
-596 30 -773 42 -289 26 -489 -52 -636 -64 -119 -225 -242 -397 -302 -120 -42
-296 -49 -487 -18 -289 48 -587 133 -764 219 -94 45 -95 46 -67 57 l28 12 -32
37 c-18 20 -47 44 -64 54 l-31 16 58 8 c31 4 76 12 100 19 l42 11 -25 20 c-14
11 -47 32 -75 46 l-50 25 104 19 c140 25 144 28 84 66 -26 16 -64 37 -83 44
l-35 14 60 12 c33 7 95 22 138 33 l78 22 -38 23 c-21 13 -60 31 -88 39 -27 9
-57 19 -65 22 -8 3 14 11 50 19 36 7 110 28 164 45 116 38 115 41 -22 85 l-86
27 95 32 c51 17 119 44 149 60 72 36 170 103 170 115 0 9 -70 33 -145 48 l-40
8 109 37 c189 66 274 116 536 321 86 67 179 139 208 161 l53 40 -273 18 c-377
25 -511 17 -698 -42 -36 -12 -66 -21 -68 -21 -2 0 20 28 48 62 27 35 50 66 50
69 0 13 -86 17 -169 8 -75 -7 -187 -33 -244 -54 -15 -6 -14 0 8 41 34 68 42
104 22 104 -22 0 -175 -49 -210 -67 -44 -22 -49 -12 -16 40 17 27 35 60 40 74
9 25 8 25 -22 19 -26 -5 -143 -50 -218 -83 -7 -3 -1 12 14 35 14 22 33 61 40
86 l14 46 -27 -6 c-44 -11 -154 -53 -169 -65 -17 -15 -17 -14 7 54 23 64 25
87 9 87 -6 0 -42 -15 -80 -34 -38 -19 -69 -33 -69 -32 0 2 4 16 9 32 5 16 12
42 16 58 6 29 6 29 -34 22 l-40 -6 26 57 c62 137 220 375 361 547 175 212 306
327 439 387 144 66 368 88 494 49z m-2570 -440 c-11 -45 -22 -84 -25 -87 -2
-2 -25 -1 -51 3 -46 6 -47 7 -42 38 3 17 19 108 35 201 29 166 46 224 80 275
16 24 17 18 20 -161 2 -157 -1 -199 -17 -269z m159 154 c-9 -86 -34 -236 -45
-271 -5 -15 -85 5 -85 21 0 28 44 185 66 235 28 62 64 124 70 118 2 -2 0 -48
-6 -103z m-1313 13 c38 -51 78 -136 103 -218 l18 -58 -31 -10 c-55 -20 -63
-15 -86 47 -33 91 -63 282 -44 282 4 0 22 -20 40 -43z m1424 -145 c-16 -123
-31 -182 -46 -182 -8 0 -25 4 -39 9 -27 11 -27 15 5 117 22 68 80 166 86 146
3 -7 0 -47 -6 -90z m-1539 -34 c48 -59 88 -120 88 -134 0 -6 -21 -17 -46 -24
-38 -11 -47 -11 -54 1 -12 19 -48 137 -55 182 -6 35 -5 38 13 28 10 -5 34 -29
54 -53z m1672 -45 c-8 -36 -45 -153 -48 -153 -2 0 -17 5 -34 11 -37 13 -36 17
32 111 45 63 59 72 50 31z m-1767 -96 c37 -51 36 -61 -8 -72 -28 -7 -36 5 -58
90 -22 83 -4 78 66 -18z m1858 -22 c-8 -38 -19 -73 -23 -77 -10 -10 -62 11
-62 25 0 18 88 132 96 124 2 -2 -3 -34 -11 -72z m-750 45 c387 -44 776 -202
1085 -443 96 -75 272 -250 350 -347 256 -322 414 -701 461 -1114 17 -144 6
-462 -20 -601 -130 -693 -555 -1255 -1181 -1559 -678 -330 -1473 -278 -2110
138 -179 118 -357 279 -495 451 -525 651 -621 1558 -244 2307 315 626 936
1070 1629 1162 126 17 400 20 525 6z m-1204 -112 c7 -14 3 -20 -19 -32 -28
-15 -29 -14 -45 20 -9 19 -19 53 -23 77 l-5 42 41 -45 c23 -24 46 -52 51 -62z
m2083 25 c-25 -114 -25 -113 -76 -87 l-30 16 48 49 c26 27 52 49 56 49 5 0 6
-12 2 -27z m-2184 -93 c0 -5 -9 -14 -19 -19 -16 -9 -21 -5 -35 29 -27 67 -20
80 19 38 19 -21 35 -42 35 -48z m2270 -26 c-13 -45 -26 -54 -48 -32 -17 17
-16 23 20 64 37 42 46 32 28 -32z m-2392 3 c25 -26 29 -36 20 -45 -21 -21 -35
-13 -52 28 -9 22 -16 43 -16 45 0 13 19 2 48 -28z m-94 -48 c30 -32 35 -43 25
-55 -19 -24 -38 -16 -59 26 -39 77 -22 92 34 29z m2596 14 c0 -10 -5 -35 -11
-56 l-10 -38 -30 22 -31 21 33 34 c37 38 49 42 49 17z m-2678 -100 l26 -28
-23 -17 c-23 -17 -23 -17 -34 14 -22 63 -10 75 31 31z m2780 -18 c-18 -50 -20
-51 -48 -30 -18 14 -18 16 16 45 19 16 38 30 42 30 4 0 0 -20 -10 -45z m-2865
-67 c13 -14 13 -20 3 -33 -7 -8 -18 -15 -24 -15 -13 0 -56 69 -56 89 0 14 53
-14 77 -41z m2993 25 c0 -3 -12 -26 -26 -50 -25 -43 -26 -44 -45 -27 -26 23
-25 27 19 57 38 27 52 32 52 20z m-3108 -84 c26 -17 48 -32 48 -33 0 -2 -11
-13 -24 -25 l-25 -23 -30 48 c-48 74 -43 80 31 33z m3192 -11 c-9 -18 -25 -43
-34 -55 l-17 -22 -22 23 -22 23 42 32 c58 42 75 41 53 -1z m-3288 -65 c29 -21
54 -41 54 -44 0 -14 -40 -40 -50 -34 -14 8 -70 95 -70 107 0 14 10 9 66 -29z
m3414 24 c0 -8 -18 -42 -41 -77 l-41 -63 -31 32 -32 32 25 20 c20 16 107 67
118 69 1 0 2 -6 2 -13z m-3525 -98 c90 -52 90 -53 64 -88 l-23 -31 -37 36
c-21 20 -52 57 -70 81 -31 44 -31 45 -8 38 13 -4 47 -20 74 -36z m3636 3 c-11
-21 -40 -61 -65 -88 l-45 -49 -27 27 -28 27 28 23 c27 22 146 98 153 98 2 0
-5 -17 -16 -38z m-3762 -78 c42 -25 88 -55 104 -68 l27 -22 -28 -34 -29 -34
-69 70 c-72 74 -114 134 -93 134 6 0 46 -21 88 -46z m3931 37 c0 -22 -174
-211 -195 -211 -8 0 -55 62 -55 73 0 13 220 146 243 147 4 0 7 -4 7 -9z
m-4044 -149 c66 -37 128 -72 139 -79 19 -11 19 -12 0 -47 l-19 -35 -36 21
c-19 12 -55 33 -80 46 -25 14 -58 36 -74 49 -32 26 -106 114 -106 125 0 13 56
-12 176 -80z m4197 46 c-20 -37 -208 -229 -240 -246 -18 -10 -24 -6 -51 37
l-30 49 47 34 c84 62 252 155 284 157 5 1 0 -14 -10 -31z m-4511 -47 c91 -31
195 -80 297 -138 53 -31 98 -57 100 -59 2 -2 -4 -21 -14 -43 l-17 -39 -102 54
c-55 30 -133 70 -171 88 -66 31 -127 85 -156 139 -12 22 -5 21 63 -2z m4720
-23 c-43 -62 -49 -66 -246 -167 -183 -92 -237 -106 -160 -39 21 18 62 54 91
80 67 60 274 166 326 168 15 0 14 -6 -11 -42z m-5040 -23 c125 -22 259 -72
447 -166 97 -48 184 -94 194 -101 17 -13 16 -17 -13 -81 -18 -37 -36 -67 -41
-67 -16 0 -512 251 -559 283 -64 44 -140 109 -151 129 -8 15 -5 18 18 18 15
-1 63 -7 105 -15z m5408 -7 c0 -15 -83 -91 -146 -133 -48 -32 -543 -285 -557
-285 -7 0 -67 126 -67 139 0 11 286 156 382 195 112 44 214 73 303 85 39 4 73
9 78 10 4 0 7 -4 7 -11z m-5688 -82 c148 -39 256 -85 569 -238 l287 -140 -36
-107 c-19 -58 -35 -107 -36 -108 -1 -1 -132 20 -291 47 -618 104 -705 139
-1085 435 l-153 120 139 11 c76 7 222 11 324 9 163 -2 197 -6 282 -29z m6386
10 c100 -7 185 -15 187 -18 6 -5 -274 -224 -369 -288 -193 -129 -379 -186
-859 -265 -117 -19 -226 -37 -243 -41 l-32 -6 -33 103 c-18 57 -33 107 -34
111 0 4 122 68 272 142 547 271 652 296 1111 262z m-5891 -608 c138 -23 257
-44 263 -48 9 -6 9 -21 0 -66 -6 -33 -13 -64 -15 -70 -3 -11 -61 -7 -260 22
-143 20 -250 45 -355 84 -104 37 -196 88 -183 101 14 14 149 27 228 22 39 -2
183 -23 322 -45z m5392 15 c24 -10 24 -10 -22 -37 -151 -89 -343 -138 -702
-180 l-51 -6 -15 74 c-15 73 -15 75 6 80 11 3 121 21 245 41 124 20 232 38
240 40 28 7 275 -3 299 -12z m-5444 -222 c66 -11 157 -22 203 -26 63 -6 82
-11 82 -23 0 -13 -24 -14 -177 -9 -166 5 -266 19 -337 46 -16 7 -27 14 -24 17
9 8 92 22 113 18 12 -2 75 -12 140 -23z m5123 -27 c45 -9 82 -20 82 -25 0 -17
-234 -57 -436 -74 l-82 -7 -4 39 c-3 21 -4 39 -3 41 2 2 72 12 156 23 85 10
159 21 164 23 6 2 17 3 25 1 8 -2 52 -11 98 -21z m-4848 -133 c0 -40 0 -40
-47 -47 -87 -13 -353 21 -353 45 0 5 35 14 78 20 42 7 84 14 92 16 8 1 63 3
123 4 l107 1 0 -39z m4660 -32 c57 -5 116 -16 133 -23 30 -12 28 -13 -64 -29
-51 -9 -142 -19 -201 -23 l-108 -7 0 47 0 46 69 0 c38 0 115 -5 171 -11z
m-4670 -110 l0 -52 -77 7 c-89 8 -210 34 -218 46 -10 16 61 33 160 40 55 4
108 7 118 8 14 2 17 -6 17 -49z m4630 -40 c25 -5 58 -15 74 -21 l30 -12 -30
-8 c-16 -4 -81 -11 -145 -14 l-116 -7 -5 34 c-3 19 -3 38 -1 42 6 10 121 1
193 -14z m-4630 -105 l0 -47 -60 6 c-33 4 -81 12 -106 18 -59 15 -45 24 74 49
48 10 88 19 90 19 1 1 2 -20 2 -45z m4554 -33 c37 -10 72 -23 77 -28 13 -13
-123 -26 -169 -17 -27 6 -32 11 -32 35 0 25 4 29 28 29 15 0 58 -9 96 -19z
m-4544 -112 c0 -39 -1 -40 -27 -35 -16 3 -48 8 -71 12 -51 7 -46 17 24 44 70
27 74 26 74 -21z m4533 -27 c31 -13 57 -29 57 -33 0 -10 -103 -12 -149 -3 -26
5 -31 11 -31 34 0 14 3 30 6 33 10 9 50 -1 117 -31z m-4513 -119 c0 -21 -4
-23 -61 -23 -52 0 -60 2 -50 14 7 8 31 24 54 35 45 22 57 17 57 -26z m4460 1
c53 -25 54 -26 30 -36 -24 -9 -105 -6 -116 5 -9 8 8 57 20 57 6 0 36 -12 66
-26z m-4438 -119 c3 -29 1 -30 -39 -33 -24 -2 -50 1 -60 6 -14 8 -9 15 33 40
27 17 52 28 56 24 3 -4 8 -20 10 -37z m4428 -13 c38 -22 42 -26 25 -33 -24 -9
-82 -11 -111 -3 -21 6 -22 16 -8 62 5 17 34 9 94 -26z m-4400 -98 c16 -40 13
-44 -32 -44 -68 0 -77 13 -32 44 48 32 52 32 64 0z m4369 -48 c12 -14 7 -16
-48 -16 -64 0 -67 3 -51 45 l10 26 38 -20 c21 -11 44 -27 51 -35z m-4329 -82
c18 -46 13 -54 -32 -54 -68 0 -76 12 -32 49 47 38 52 38 64 5z m4297 -56 c15
-17 13 -18 -50 -18 -36 0 -68 3 -71 8 -2 4 2 22 10 40 l14 33 40 -22 c22 -13
48 -31 57 -41z m189 -6 c71 -23 194 -59 274 -82 352 -100 749 -224 794 -248
224 -121 473 -602 493 -952 13 -237 -72 -496 -235 -723 -31 -44 -160 -186
-285 -316 -126 -130 -267 -283 -313 -340 -133 -166 -203 -322 -220 -491 -5
-59 -9 -70 -23 -66 -133 41 -247 52 -364 37 -159 -21 -285 -65 -697 -244 -350
-152 -478 -182 -735 -174 -170 5 -259 24 -389 81 -203 90 -453 331 -555 535
-84 165 -81 141 -81 785 1 492 3 568 15 552 18 -23 30 -15 58 41 l23 45 27
-41 c15 -23 31 -41 36 -41 4 0 16 18 26 40 10 22 21 40 25 40 3 0 15 -19 27
-43 18 -38 19 -49 10 -107 -6 -36 -11 -184 -11 -330 1 -392 31 -594 114 -765
98 -200 292 -381 470 -436 134 -42 316 -35 485 18 44 14 141 50 215 80 171 70
257 100 500 171 l195 57 135 -1 c123 0 143 -3 226 -31 l91 -30 7 86 c9 112 32
212 66 286 14 33 87 141 162 240 160 214 202 264 342 414 179 191 259 314 307
471 87 288 -78 671 -372 865 -230 152 -690 335 -966 386 -65 12 -122 25 -126
29 -5 4 14 11 42 15 l51 7 -15 28 c-8 15 -26 41 -39 57 l-25 30 58 6 c93 8 98
15 54 67 -21 24 -31 41 -22 38 9 -3 74 -24 145 -46z m-4646 30 c0 -4 -5 -13
-12 -20 -9 -9 -3 -15 23 -26 19 -8 48 -18 63 -22 l27 -7 -24 -26 c-14 -14 -32
-41 -41 -58 l-17 -33 61 0 c33 0 60 -4 60 -8 0 -23 -45 -42 -147 -61 -224 -43
-465 -128 -738 -261 -200 -98 -270 -144 -365 -239 -88 -88 -141 -165 -187
-272 -116 -267 -94 -481 75 -731 51 -76 89 -120 256 -298 113 -120 405 -508
434 -577 36 -84 53 -162 59 -270 3 -57 7 -103 9 -103 2 0 25 8 51 19 95 37
198 54 306 49 88 -4 133 -14 332 -72 131 -39 320 -103 440 -151 241 -96 339
-123 481 -132 226 -13 413 75 589 279 155 180 210 365 235 793 11 178 9 243
-11 482 -9 101 -8 126 4 149 l14 27 23 -68 23 -69 19 25 c11 13 31 46 45 73
l25 50 19 -40 c28 -57 44 -70 63 -54 14 11 16 -43 16 -552 0 -528 -1 -570 -20
-641 -68 -269 -336 -569 -626 -703 -125 -58 -209 -76 -386 -81 -266 -9 -381
21 -821 211 -403 174 -523 209 -707 210 -99 0 -141 -5 -203 -22 -42 -12 -79
-22 -82 -22 -3 0 -5 24 -5 53 0 109 -63 289 -141 404 -66 97 -159 203 -363
413 -114 118 -234 247 -266 286 -117 146 -206 316 -250 481 -31 112 -38 321
-16 434 66 327 258 672 448 803 56 38 334 127 843 271 127 35 262 75 300 89
80 28 85 29 85 18z m211 -99 c5 -14 6 -30 2 -34 -10 -9 -103 -16 -103 -8 0 10
69 69 81 69 5 0 14 -12 20 -27z m4152 -28 c53 -36 48 -49 -15 -41 -66 9 -70
12 -56 41 14 31 24 31 71 0z m-4093 -104 c11 -22 16 -42 11 -45 -4 -3 -28 -8
-52 -11 -24 -4 -54 -8 -66 -11 -14 -3 -23 0 -23 8 0 13 86 98 100 98 5 0 19
-18 30 -39z m4043 -8 c49 -27 50 -28 22 -31 -37 -5 -95 6 -95 18 0 13 12 40
17 40 3 0 28 -12 56 -27z m2179 -73 c53 -44 130 -117 173 -162 76 -82 195
-234 195 -249 0 -9 -88 -43 -195 -74 -161 -46 -475 -83 -475 -55 0 23 -98 214
-149 292 -28 42 -74 101 -101 131 l-50 55 62 7 c126 14 274 56 373 108 28 14
55 26 61 27 6 0 54 -36 106 -80z m-8242 26 c90 -37 216 -70 312 -81 l56 -6
-66 -83 c-81 -101 -151 -217 -202 -334 -32 -76 -41 -87 -64 -90 -37 -5 -221
25 -331 53 -114 29 -295 96 -295 109 0 21 114 157 207 247 106 102 272 232
288 225 6 -3 48 -21 95 -40z m6018 -72 c28 -25 52 -50 52 -55 0 -5 -13 -9 -30
-9 -33 0 -130 19 -130 26 0 12 41 84 48 84 4 0 31 -21 60 -46z m-3930 1 c10
-22 9 -27 -11 -39 -29 -19 -126 -50 -133 -43 -9 9 5 25 58 67 58 47 71 49 86
15z m4146 5 c391 -72 938 -319 1097 -496 158 -177 238 -425 195 -607 -34 -145
-112 -266 -304 -474 -159 -173 -182 -200 -337 -409 -70 -93 -142 -199 -161
-236 -35 -69 -68 -177 -79 -259 l-6 -47 -57 16 c-38 11 -99 16 -182 16 l-125
0 -250 -72 c-151 -44 -329 -105 -449 -153 -263 -105 -315 -120 -462 -126 -199
-9 -300 32 -454 187 -174 174 -233 320 -259 643 -19 229 -12 572 15 701 l6 29
23 -29 22 -28 13 23 c7 13 20 47 30 75 l17 51 26 -55 c13 -30 36 -70 50 -88
l25 -33 21 56 c12 31 21 64 21 75 0 28 17 33 24 7 3 -13 31 -63 63 -112 l58
-89 12 49 c6 28 12 73 12 100 l1 50 36 -65 c42 -75 103 -154 113 -145 3 4 8
60 11 125 l5 119 56 -92 c67 -108 145 -212 152 -200 6 10 26 116 29 158 3 29
3 29 42 -25 59 -83 153 -177 230 -231 38 -27 74 -49 79 -49 10 0 3 140 -9 177
-6 20 3 10 93 -100 78 -96 190 -188 349 -287 75 -47 199 -126 276 -177 77 -51
137 -85 133 -75 -16 36 -105 303 -150 447 -59 188 -124 324 -216 444 -39 52
-65 91 -58 88 81 -35 142 -58 148 -55 13 5 -93 174 -187 300 -46 61 -77 108
-69 105 33 -12 175 -55 206 -62 l34 -7 -68 98 c-37 55 -81 114 -96 133 -16 19
-27 36 -26 37 1 1 40 -7 86 -17 46 -11 85 -18 88 -15 8 8 -56 96 -116 160 -47
49 -52 58 -31 53 14 -4 56 -10 94 -14 l70 -6 -24 34 c-13 19 -42 57 -65 84
l-42 50 74 -3 c71 -3 74 -3 64 16 -6 11 -34 40 -62 66 l-51 46 61 0 c34 0 61
3 61 8 0 13 -41 76 -68 105 l-26 27 30 0 c17 0 79 -9 138 -20z m-4315 -27
c-16 -19 -38 -51 -49 -73 l-20 -40 54 0 54 0 -50 -75 c-28 -42 -48 -79 -44
-82 3 -4 36 -2 73 4 38 6 69 9 71 8 1 -1 -14 -23 -35 -48 -21 -26 -48 -65 -61
-87 l-23 -40 23 0 c13 0 49 6 81 14 31 7 57 11 57 9 0 -3 -19 -26 -42 -52 -24
-26 -63 -76 -87 -111 l-45 -63 62 6 c63 7 75 0 45 -24 -22 -19 -135 -171 -130
-176 5 -4 129 14 160 23 12 4 4 -14 -27 -58 -71 -102 -161 -298 -136 -298 5 0
44 13 88 28 l79 28 -62 -82 c-111 -147 -159 -254 -249 -555 -30 -102 -70 -222
-90 -267 -19 -45 -29 -79 -23 -75 7 4 53 35 102 68 50 33 162 105 250 158 200
123 312 212 405 324 41 48 79 94 86 101 9 11 10 5 3 -30 -10 -55 -11 -148 -1
-148 4 0 32 16 62 37 79 52 206 184 274 285 33 48 60 87 61 85 1 -1 -2 -49 -7
-106 -5 -57 -5 -115 -1 -128 8 -24 10 -22 69 39 33 35 69 76 81 92 l21 30 7
-72 c9 -87 13 -86 87 28 27 41 51 77 53 79 3 2 2 -26 -2 -63 -5 -55 -3 -66 9
-66 23 0 93 72 126 130 l29 51 7 -53 c4 -29 9 -68 13 -86 l6 -33 33 32 c18 18
46 56 61 85 l28 53 15 -65 15 -65 42 36 c23 19 45 44 48 55 13 41 22 17 34
-92 37 -331 16 -774 -45 -978 -69 -233 -292 -463 -494 -509 -25 -6 -88 -11
-141 -11 -124 0 -242 29 -443 111 -203 82 -254 100 -515 175 -267 76 -338 85
-490 60 -57 -10 -104 -16 -105 -14 -1 2 -7 35 -14 75 -25 154 -67 238 -220
443 -156 209 -211 275 -342 415 -140 149 -190 213 -245 318 -57 109 -75 173
-75 275 0 109 20 184 81 310 40 79 68 120 126 182 95 101 170 151 385 254 325
158 632 252 815 252 l62 0 -30 -33z m232 -79 c22 -36 22 -37 3 -52 -30 -23
-136 -71 -173 -78 l-35 -7 21 29 c27 37 144 143 160 144 1 0 11 -16 24 -36z
m3797 -23 c75 -44 111 -70 98 -71 -30 -1 -173 47 -194 65 -4 3 21 45 26 45 2
0 34 -18 70 -39z m-50 -100 c31 -21 75 -58 97 -81 l40 -42 -35 7 c-40 8 -126
45 -187 81 l-43 25 22 30 c25 34 28 33 106 -20z m-3665 5 l26 -33 -44 -32
c-47 -34 -182 -101 -202 -101 -19 0 -16 9 19 49 33 38 159 150 169 151 4 0 18
-15 32 -34z m3566 -98 c61 -45 221 -197 221 -209 0 -8 -102 25 -175 56 -59 25
-175 95 -175 104 0 9 62 90 69 90 2 1 29 -18 60 -41z m-3486 -2 c15 -22 14
-24 -31 -62 -26 -21 -79 -69 -118 -106 -65 -62 -157 -118 -171 -104 -16 16
265 295 298 296 4 0 14 -11 22 -24z m64 -160 c-23 -21 -97 -91 -165 -154 -118
-109 -184 -152 -238 -152 -32 0 112 160 280 312 l109 98 28 -32 28 -33 -42
-39z m3305 40 c29 -18 76 -45 103 -59 28 -13 73 -49 101 -78 56 -60 138 -168
132 -175 -6 -6 -100 32 -181 72 -77 39 -214 128 -261 170 l-29 25 39 40 c21
21 39 39 41 39 1 0 26 -15 55 -34z m-3162 -94 c33 -30 51 -53 46 -60 -20 -33
-429 -401 -486 -438 -62 -40 -132 -74 -152 -74 -15 0 67 149 123 223 81 108
378 397 407 397 5 0 32 -22 62 -48z m3049 -36 c31 -24 88 -64 127 -89 39 -25
95 -72 124 -106 60 -67 231 -303 225 -309 -2 -3 -39 15 -82 38 -59 33 -123 85
-268 220 -104 98 -203 191 -219 208 l-29 31 29 25 c16 14 31 26 33 26 3 0 30
-20 60 -44z m-2839 -131 c30 -21 59 -42 63 -46 5 -3 -33 -78 -84 -165 -309
-533 -402 -657 -594 -799 -78 -58 -415 -268 -415 -258 0 12 95 326 122 403 88
250 204 394 643 807 l150 141 30 -22 c17 -13 55 -40 85 -61z m2847 -72 c228
-212 357 -344 435 -444 141 -181 171 -253 314 -741 5 -17 -226 117 -369 214
-199 135 -332 300 -557 693 -56 98 -120 207 -141 242 l-38 62 79 55 c43 30 81
60 85 66 3 5 10 10 15 10 4 0 84 -71 177 -157z m-269 -218 c118 -205 176 -315
199 -380 20 -55 42 -175 33 -175 -17 0 -152 135 -203 203 -69 92 -150 227
-227 377 l-60 118 63 35 c47 28 65 33 73 24 7 -7 61 -98 122 -202z m-2394 173
c31 -18 56 -37 56 -42 0 -16 -158 -305 -213 -389 -29 -45 -79 -112 -110 -148
-59 -70 -154 -155 -163 -146 -9 9 35 175 64 239 51 112 288 518 302 518 5 0
33 -15 64 -32z m176 -105 c0 -7 -14 -57 -31 -110 -35 -111 -105 -251 -150
-303 l-31 -35 6 85 c7 109 35 209 91 320 l45 90 35 -17 c19 -9 35 -23 35 -30z
m1974 -61 c30 -59 68 -132 86 -162 27 -46 32 -66 37 -142 6 -90 -1 -106 -27
-65 -102 159 -220 393 -220 438 0 15 32 37 57 38 7 1 37 -48 67 -107z m-144
-62 c12 -52 24 -135 27 -185 l5 -90 -22 34 c-41 65 -120 272 -120 315 0 19 73
48 81 32 4 -6 17 -54 29 -106z m-1741 99 c17 -6 31 -17 31 -25 0 -23 -59 -163
-108 -259 l-47 -90 -3 49 c-2 35 8 83 39 180 23 72 43 137 45 144 4 15 3 15
43 1z m1596 -115 c8 -44 14 -113 14 -154 l1 -75 -20 25 c-25 33 -80 184 -83
228 -2 31 1 36 33 47 19 7 36 11 38 10 2 -2 10 -38 17 -81z m-1448 62 c11 -11
-79 -231 -111 -271 -15 -19 -15 -19 -16 15 0 34 29 171 51 239 10 30 14 33 42
27 17 -3 32 -8 34 -10z m120 -36 c18 0 -47 -195 -73 -219 -15 -15 -16 -9 -10
89 8 145 10 150 49 139 18 -5 33 -9 34 -9z m1186 -105 c-8 -75 -14 -105 -22
-105 -10 0 -49 114 -57 166 -6 40 -6 40 33 50 l38 9 6 -40 c3 -22 4 -58 2 -80z
m-1065 78 c20 -5 23 -10 18 -36 -8 -38 -57 -147 -66 -147 -17 0 -29 168 -13
183 8 9 31 9 61 0z m922 -20 c0 -32 -25 -141 -33 -150 -10 -10 -37 70 -40 116
-2 40 1 45 23 52 44 12 50 10 50 -18z m-789 -3 c10 0 19 -5 19 -11 0 -23 -53
-128 -61 -123 -5 3 -9 37 -9 76 0 60 2 69 16 64 9 -3 24 -6 35 -6z m643 -88
l-16 -57 -13 35 c-7 19 -15 52 -19 72 -6 36 -6 37 26 40 42 4 45 -12 22 -90z
m-504 68 c0 -19 -42 -120 -49 -120 -5 0 -11 21 -15 46 -11 81 -10 84 29 84 19
0 35 -4 35 -10z m399 -17 c0 -16 -6 -46 -13 -68 l-13 -40 -17 37 c-9 21 -16
51 -16 68 0 27 3 30 30 30 26 0 30 -3 29 -27z m-269 -5 c0 -13 -9 -41 -19 -63
-16 -37 -18 -38 -28 -20 -6 11 -14 39 -18 63 l-7 42 36 0 c31 0 36 -3 36 -22z
m150 2 c0 -34 -21 -120 -30 -120 -7 0 -50 112 -50 132 0 4 18 8 40 8 33 0 40
-3 40 -20z m-70 -1568 c51 -101 138 -219 231 -314 l71 -72 -32 -86 c-62 -163
-195 -398 -293 -514 l-24 -29 -43 54 c-95 119 -164 243 -241 433 l-57 141 89
92 c93 97 188 231 229 325 14 31 26 55 27 54 1 -1 20 -39 43 -84z"/>
<path d="M4769 7033 c-18 -4 -29 -93 -29 -230 l0 -73 35 0 c35 0 35 0 35 45
l0 45 49 0 c48 0 50 -1 87 -52 21 -29 39 -54 40 -56 4 -6 54 22 54 30 0 5 -14
29 -31 54 l-30 45 25 30 c44 52 28 117 -36 150 -27 14 -56 19 -110 18 -40 -1
-80 -3 -89 -6z m173 -74 c26 -14 22 -44 -7 -57 -14 -7 -48 -12 -75 -12 l-50 0
0 39 c0 33 4 40 23 44 28 6 86 -2 109 -14z"/>
<path d="M4545 7015 c-5 -1 -35 -8 -67 -14 -81 -17 -108 -45 -108 -114 0 -57
33 -173 56 -196 17 -19 94 -19 157 -2 50 15 52 17 38 55 -10 24 -10 24 -57 10
-61 -18 -90 -18 -98 2 -13 35 -6 42 60 54 l65 12 -7 32 c-3 17 -7 32 -8 33 -1
2 -50 -8 -113 -22 -20 -5 -23 -1 -23 25 0 34 14 43 93 54 47 7 48 8 45 38 -3
30 -12 40 -33 33z"/>
<path d="M5215 6999 c-46 -27 -65 -52 -65 -88 1 -50 27 -80 91 -100 56 -19 71
-39 49 -66 -17 -21 -57 -19 -89 4 -26 19 -28 19 -54 2 l-27 -17 28 -28 c39
-36 91 -50 140 -36 51 13 73 40 79 94 5 38 2 48 -20 70 -14 14 -38 28 -54 31
-51 11 -73 24 -73 44 0 34 62 43 82 12 11 -18 14 -18 40 -5 35 18 35 24 -1 58
-32 31 -94 43 -126 25z"/>
<path d="M5457 6795 l-46 -136 25 -9 c14 -6 29 -10 32 -10 12 0 95 261 86 270
-5 4 -19 11 -31 14 -19 6 -24 -3 -66 -129z"/>
<path d="M4209 6863 c-1 -32 -4 -83 -7 -113 l-7 -54 -75 82 c-41 45 -80 82
-86 82 -6 0 -19 -9 -28 -19 -18 -19 -15 -23 100 -134 66 -63 121 -113 123
-111 3 3 50 295 51 317 0 4 -16 7 -35 7 l-35 0 -1 -57z"/>
<path d="M5676 6855 c-21 -32 -21 -32 17 -51 17 -9 34 -18 36 -20 1 -1 -20
-46 -49 -99 -29 -53 -50 -98 -49 -99 7 -6 48 -26 53 -26 3 0 25 37 50 83 66
119 57 111 99 91 36 -17 38 -17 52 2 8 10 15 24 15 29 0 6 -47 34 -104 62
l-104 52 -16 -24z"/>
<path d="M3885 6768 c-11 -6 -21 -12 -23 -13 -3 -3 100 -209 116 -233 7 -10
14 -11 35 -1 15 7 27 15 27 19 0 12 -122 240 -128 240 -4 0 -16 -6 -27 -12z"/>
<path d="M3757 6694 c-17 -9 -25 -20 -21 -27 4 -7 25 -40 47 -75 22 -35 37
-65 35 -67 -2 -3 -58 7 -123 21 -121 25 -161 25 -171 -1 -3 -7 31 -67 77 -133
l83 -120 28 20 29 20 -46 63 c-71 100 -73 97 73 61 117 -30 132 -32 156 -19
25 13 26 16 13 36 -8 12 -44 70 -81 130 -37 59 -68 107 -69 107 -1 -1 -15 -8
-30 -16z"/>
<path d="M6000 6659 c-14 -6 -36 -20 -49 -32 -27 -26 -111 -132 -111 -142 0
-4 10 -15 23 -25 22 -19 22 -19 48 12 23 28 28 29 50 18 13 -7 43 -28 67 -47
l42 -35 -21 -30 -22 -30 22 -21 22 -22 45 50 c53 60 94 138 94 178 0 44 -28
83 -81 111 -49 27 -87 31 -129 15z m108 -79 c37 -22 43 -60 16 -98 l-16 -23
-36 33 c-21 18 -48 40 -61 49 -27 17 -22 35 13 49 33 13 48 12 84 -10z"/>
<path d="M4650 6646 c-354 -51 -679 -210 -933 -455 -341 -330 -517 -739 -519
-1206 -1 -173 10 -264 49 -420 159 -637 688 -1130 1339 -1246 141 -25 402 -30
529 -10 366 58 692 221 948 476 247 244 403 541 474 900 28 141 25 453 -5 603
-138 688 -656 1207 -1337 1342 -140 28 -406 36 -545 16z m570 -110 c148 -27
281 -91 381 -184 90 -83 121 -163 87 -225 -10 -20 -191 -272 -208 -290 -4 -4
-36 10 -71 32 -118 73 -353 151 -459 151 l-47 0 -6 122 c-13 227 -7 272 40
328 31 37 70 58 126 70 60 11 73 11 157 -4z m-455 -47 c28 -14 60 -40 73 -59
21 -31 22 -42 22 -226 l0 -194 -59 0 c-140 0 -420 -91 -497 -161 -20 -19 -21
-18 -121 113 -122 163 -133 183 -133 251 0 43 6 63 30 98 49 75 161 143 292
178 107 29 113 30 233 27 95 -2 117 -6 160 -27z m1187 -360 c56 -28 151 -120
200 -192 83 -121 128 -247 128 -355 0 -119 -21 -138 -233 -208 -93 -30 -174
-53 -181 -51 -6 3 -17 22 -24 43 -18 51 -94 184 -146 254 -46 62 -129 149
-165 171 l-25 16 99 142 c99 143 138 184 192 201 40 13 106 4 155 -21z m-1926
-20 c14 -13 70 -85 125 -161 l98 -136 -77 -79 c-91 -91 -167 -200 -232 -328
l-45 -92 -173 56 c-234 76 -272 109 -272 235 0 177 210 446 408 522 55 21 136
13 168 -17z m1082 -208 c272 -68 511 -266 631 -523 276 -590 -113 -1276 -766
-1348 -309 -34 -636 101 -831 344 -148 184 -213 371 -213 611 1 457 326 843
784 931 98 19 287 11 395 -15z m1199 -516 c61 -12 129 -103 153 -207 14 -64
12 -253 -5 -331 -35 -164 -124 -287 -209 -287 -16 0 -108 25 -203 56 -149 47
-174 58 -168 72 41 104 54 403 22 521 -10 36 -14 68 -10 71 11 10 302 108 333
113 14 2 32 3 40 1 8 -1 29 -5 47 -9z m-2597 -46 c85 -28 159 -55 163 -59 5
-4 1 -34 -8 -66 -24 -87 -31 -348 -12 -439 8 -38 18 -77 21 -85 9 -21 -275
-122 -359 -127 -53 -4 -65 -1 -105 24 -111 72 -158 283 -111 509 39 188 117
294 216 294 22 0 110 -23 195 -51z m190 -712 c0 -24 78 -176 131 -254 51 -75
151 -184 196 -214 22 -14 21 -16 -78 -156 -119 -170 -148 -195 -230 -201 -49
-4 -68 0 -113 22 -164 80 -336 362 -336 551 0 51 31 119 63 140 20 13 330 120
360 124 4 1 7 -5 7 -12z m2138 -46 c182 -54 223 -79 254 -149 29 -64 20 -141
-25 -235 -68 -142 -191 -276 -315 -340 -108 -56 -173 -57 -230 -4 -33 31 -215
284 -211 294 2 4 26 27 54 49 96 78 238 272 277 377 11 31 24 57 28 57 4 0 80
-22 168 -49z m-1717 -482 c100 -71 343 -156 471 -164 l63 -4 3 -173 c3 -205
-4 -243 -59 -292 -45 -41 -92 -56 -179 -56 -122 0 -261 46 -380 126 -82 54
-99 69 -142 126 -43 56 -54 104 -34 151 16 40 207 306 219 307 5 0 22 -9 38
-21z m1260 -122 c137 -183 151 -225 108 -314 -28 -57 -87 -106 -184 -153 -112
-53 -199 -73 -325 -74 -129 -1 -189 15 -240 63 -47 44 -53 81 -48 291 l3 145
35 2 c181 13 424 90 510 162 14 11 27 20 30 21 3 0 53 -64 111 -143z"/>
<path d="M5136 6337 c-35 -46 -55 -96 -62 -161 -7 -60 -5 -63 44 -50 17 5 22
14 22 40 0 31 3 34 28 34 59 0 238 -56 270 -85 2 -2 -4 -20 -14 -40 -17 -37
-17 -37 7 -56 24 -18 24 -18 41 4 26 32 48 113 48 174 l0 54 -32 -3 c-30 -3
-33 -6 -30 -32 3 -24 0 -28 -15 -23 -10 4 -56 20 -103 36 -47 17 -97 31 -112
31 -14 0 -33 3 -42 6 -14 5 -13 10 5 35 22 31 19 43 -11 59 -16 8 -23 4 -44
-23z"/>
<path d="M4425 6376 c-144 -37 -227 -131 -211 -240 4 -24 23 -68 42 -99 35
-56 36 -56 60 -41 29 20 30 28 3 66 -25 35 -26 35 69 78 68 32 184 70 212 70
13 0 19 -11 23 -45 6 -56 8 -58 42 -49 28 7 28 7 22 76 -7 81 -37 143 -84 170
-41 25 -116 30 -178 14z m146 -75 c19 -16 21 -21 9 -24 -8 -3 -53 -17 -100
-31 -47 -14 -111 -39 -142 -54 -64 -31 -72 -25 -40 30 45 76 216 126 273 79z"/>
<path d="M5819 5966 c-59 -21 -96 -53 -123 -109 l-26 -52 32 -8 c18 -5 34 -5
35 0 18 51 86 113 125 113 10 0 32 -13 50 -29 36 -32 36 -27 -5 -122 l-16 -35
60 4 c69 5 99 -13 99 -57 0 -51 -45 -90 -120 -106 -37 -8 -50 -20 -50 -47 0
-25 71 -24 125 1 46 20 102 79 111 116 16 63 -32 148 -88 157 -16 2 -21 11
-22 44 -3 52 -35 97 -89 123 -50 24 -50 24 -98 7z"/>
<path d="M3748 5878 c-25 -40 -48 -79 -53 -86 -7 -14 20 -41 42 -42 6 0 26 25
45 55 l34 55 66 -53 c72 -55 82 -80 58 -141 -12 -33 -95 -86 -132 -86 -21 0
-31 -6 -38 -26 -13 -32 -6 -44 27 -44 82 0 189 75 211 148 15 49 15 97 2 123
-12 21 -193 169 -208 169 -6 0 -30 -33 -54 -72z"/>
<path d="M4681 5740 c-220 -58 -406 -210 -507 -415 -55 -113 -74 -184 -81
-310 -10 -170 33 -326 127 -468 198 -299 568 -429 901 -317 329 110 540 400
541 745 1 139 -18 217 -84 355 -45 93 -61 115 -147 200 -81 81 -111 103 -191
143 -131 65 -224 87 -369 86 -81 0 -138 -6 -190 -19z m384 -54 c234 -62 431
-251 512 -491 24 -71 27 -95 27 -220 0 -127 -2 -147 -27 -220 -108 -310 -379
-508 -697 -508 -203 -1 -379 72 -520 213 -306 306 -280 809 55 1083 74 61 217
131 310 151 85 19 252 15 340 -8z"/>
<path d="M4802 5559 c-81 -10 -121 -23 -204 -66 -122 -63 -232 -193 -278 -326
-30 -86 -37 -231 -16 -319 63 -268 302 -457 576 -458 360 -1 640 333 576 687
-55 310 -340 519 -654 482z m193 -347 c189 -97 194 -360 9 -463 -101 -57 -216
-45 -299 32 -151 139 -105 372 88 446 46 18 154 10 202 -15z"/>
<path d="M6067 5200 c-46 -9 -46 -9 -40 -43 5 -26 9 -28 42 -25 l36 3 3 -100
c1 -55 -1 -125 -5 -155 -8 -54 -9 -55 -39 -52 -28 3 -32 0 -36 -27 -6 -38 3
-41 107 -48 72 -5 83 -3 115 19 65 45 100 118 100 213 0 65 -27 121 -78 167
-58 53 -115 66 -205 48z m150 -85 c89 -63 83 -244 -11 -289 -17 -8 -34 -12
-37 -8 -4 4 -2 43 3 87 5 44 7 113 5 153 -4 77 1 84 40 57z"/>
<path d="M3525 5189 c-74 -43 -105 -114 -104 -238 0 -83 25 -178 50 -194 11
-7 60 -7 145 -1 l129 9 -3 145 c-5 167 -17 210 -76 255 -40 31 -109 42 -141
24z m113 -93 c28 -32 30 -41 37 -146 6 -90 5 -114 -6 -121 -8 -5 -47 -9 -87
-9 -70 0 -73 1 -83 28 -14 35 -14 179 -1 214 30 74 91 89 140 34z"/>
<path d="M3766 4430 c-168 -107 -180 -262 -30 -399 103 -95 219 -79 312 41 17
23 32 45 32 48 0 4 -12 13 -26 21 -25 13 -28 12 -50 -16 l-23 -29 -27 24 c-39
37 -113 138 -141 193 -23 47 -24 49 -6 63 10 7 26 16 36 19 20 7 21 18 7 46
-14 26 -28 24 -84 -11z m10 -187 c22 -37 65 -95 97 -129 62 -67 62 -77 -4 -77
-73 0 -169 105 -169 184 0 38 17 89 30 89 4 0 25 -30 46 -67z"/>
<path d="M5789 4363 c-77 -119 -103 -183 -96 -241 8 -71 70 -122 147 -122 53
0 86 18 141 77 36 39 149 211 149 228 0 3 -174 100 -257 143 -20 11 -26 5 -84
-85z m165 -34 c42 -22 78 -44 81 -48 7 -13 -94 -159 -129 -186 -42 -32 -91
-33 -123 -3 -41 38 -28 92 54 219 21 32 39 59 40 59 1 0 36 -18 77 -41z"/>
<path d="M4340 3940 c-47 -25 -128 -109 -114 -118 95 -62 129 -80 184 -99 60
-20 66 -21 72 -5 15 37 8 49 -34 62 -50 14 -114 46 -123 59 -7 12 74 61 101
61 11 0 43 -12 72 -26 109 -54 146 -144 81 -198 -59 -50 -136 -48 -201 4 l-40
33 -25 -26 -26 -25 49 -35 c89 -65 181 -72 260 -21 53 35 76 68 82 120 16 146
-204 286 -338 214z"/>
<path d="M5429 3952 c-21 -18 -22 -20 -6 -43 10 -13 17 -27 17 -31 0 -21 -172
-87 -267 -103 l-43 -7 0 41 c0 40 0 41 -36 41 l-37 0 7 -57 c14 -118 43 -176
107 -208 66 -35 228 -5 301 55 84 69 90 180 16 294 -27 42 -28 42 -59 18z m24
-230 c-11 -14 -30 -34 -44 -44 -34 -24 -137 -49 -176 -42 -33 6 -87 50 -78 64
3 4 25 11 50 14 54 9 166 46 220 74 l40 20 3 -31 c2 -18 -4 -40 -15 -55z"/>
<path d="M3427 6435 c-17 -24 -17 -25 24 -62 96 -87 123 -157 76 -201 -13 -12
-33 -22 -44 -22 -23 0 -94 50 -154 106 l-35 34 -22 -23 -23 -24 66 -61 c110
-104 184 -127 243 -77 92 77 79 177 -40 295 -33 33 -63 60 -66 60 -4 0 -15
-12 -25 -25z"/>
<path d="M6320 6383 c-61 -42 -67 -94 -19 -166 34 -52 35 -80 2 -85 -27 -4
-77 42 -69 63 7 20 -45 60 -56 43 -18 -30 -8 -87 22 -121 60 -68 143 -75 180
-14 28 46 25 74 -16 140 -39 62 -36 87 10 87 26 0 66 -38 66 -63 0 -9 13 -23
29 -32 28 -14 30 -14 36 6 14 44 -24 118 -75 144 -38 20 -80 19 -110 -2z"/>
<path d="M6388 4024 c-41 -22 -78 -92 -78 -147 0 -53 33 -103 113 -170 l47
-40 25 23 c24 23 24 23 5 37 -11 8 -20 19 -20 24 0 16 91 139 103 139 6 0 19
-8 30 -17 18 -17 20 -17 38 6 10 13 19 26 19 30 -1 9 -119 96 -157 115 -39 20
-89 20 -125 0z m105 -65 c12 -7 24 -13 26 -15 2 -2 -18 -36 -45 -75 l-48 -71
-23 27 c-62 72 8 176 90 134z"/>
<path d="M3405 3920 c-19 -21 -18 -25 34 -82 24 -27 24 -28 5 -49 -35 -39
-102 -79 -132 -79 -43 0 -82 49 -82 101 0 33 -4 41 -26 49 -36 14 -44 5 -44
-43 1 -81 53 -155 123 -172 61 -16 113 10 237 117 l42 37 -62 70 c-35 39 -66
71 -70 71 -4 0 -15 -9 -25 -20z"/>
<path d="M6090 3700 l-85 -79 22 -23 23 -22 31 24 32 23 31 -34 c17 -19 49
-56 72 -83 l40 -49 27 18 27 17 -21 30 c-12 16 -46 56 -76 88 l-54 59 33 30
33 30 -25 25 -25 24 -85 -78z"/>
<path d="M3570 3661 c-43 -23 -89 -68 -101 -99 -25 -66 2 -150 60 -189 40 -27
126 -31 169 -9 64 33 107 108 99 174 -12 111 -129 174 -227 123z m134 -77 c46
-47 26 -128 -40 -159 -57 -27 -104 -12 -129 42 -24 50 -8 89 50 125 43 26 87
23 119 -8z"/>
<path d="M5799 3487 c-79 -48 -139 -89 -139 -95 0 -3 34 -60 76 -128 80 -128
77 -126 123 -96 11 8 10 14 -3 34 -16 24 -15 25 22 55 20 17 47 33 59 37 19 6
74 -3 117 -20 15 -6 41 45 29 57 -4 4 -30 14 -58 20 -27 7 -51 14 -52 14 -2 1
2 15 9 31 24 65 -18 124 -87 124 -29 0 -57 -10 -96 -33z m110 -36 c21 -13 6
-55 -36 -102 -58 -64 -68 -66 -99 -19 -16 24 -24 44 -18 50 12 11 126 80 133
80 3 0 12 -4 20 -9z"/>
<path d="M3896 3475 c-78 -28 -126 -96 -126 -180 0 -88 48 -150 134 -174 77
-21 136 15 168 102 16 46 16 46 -7 61 -40 26 -128 57 -136 49 -5 -5 -10 -19
-11 -32 -3 -20 4 -26 40 -39 46 -18 50 -26 26 -60 -18 -26 -44 -28 -89 -7 -40
20 -60 55 -58 105 2 51 17 76 56 100 45 28 74 25 109 -10 22 -23 35 -29 54
-24 13 3 26 10 29 15 9 13 -57 81 -92 95 -39 17 -48 17 -97 -1z"/>
<path d="M5389 3317 c-45 -29 -69 -80 -69 -142 0 -48 22 -160 33 -171 3 -3 19
-3 35 1 28 6 30 8 21 37 -5 18 -8 33 -6 34 4 4 145 44 155 44 6 0 13 -14 17
-31 6 -28 9 -30 38 -23 18 3 33 7 35 9 6 5 -51 162 -69 192 -47 76 -122 95
-190 50z m135 -89 c10 -16 14 -33 10 -38 -5 -4 -39 -16 -76 -28 l-68 -20 0 42
c0 31 6 48 23 63 43 40 81 34 111 -19z"/>
<path d="M4291 3294 c-14 -32 -8 -38 57 -56 49 -14 50 -21 22 -103 -24 -70
-33 -82 -70 -90 -38 -8 -105 28 -122 65 -10 23 -16 26 -40 21 -16 -3 -29 -9
-29 -14 1 -4 1 -13 1 -21 0 -23 49 -75 91 -96 46 -24 119 -26 159 -5 18 9 38
34 53 67 31 66 63 196 51 207 -5 4 -36 16 -69 25 -33 10 -67 20 -76 22 -10 4
-20 -4 -28 -22z"/>
<path d="M4644 3231 c-66 -30 -113 -117 -129 -238 l-7 -53 35 0 c33 0 36 3 39
33 l3 32 55 -2 c30 -1 74 -5 98 -8 l44 -6 -7 -40 -7 -39 35 0 35 0 7 79 c11
129 -10 207 -63 235 -49 25 -94 28 -138 7z m101 -73 c16 -14 28 -38 32 -62 l6
-39 -39 6 c-21 4 -60 7 -86 7 -42 0 -48 3 -48 21 0 27 62 89 88 89 12 0 33
-10 47 -22z"/>
<path d="M5085 3188 l-70 -62 -3 42 c-3 41 -4 42 -39 42 l-36 0 7 -52 c3 -29
6 -95 6 -145 l0 -93 35 0 35 0 0 64 c0 43 4 66 13 69 6 2 43 -25 81 -59 l70
-64 23 22 24 22 -67 67 -67 68 54 49 c54 50 54 50 35 71 -11 12 -22 21 -25 21
-4 0 -38 -28 -76 -62z"/>
<path d="M24915 7904 c-116 -20 -230 -79 -294 -151 -157 -176 -198 -462 -96
-663 36 -71 133 -179 230 -257 49 -39 202 -140 340 -223 138 -83 276 -171 308
-195 176 -139 260 -366 204 -557 -23 -75 -91 -174 -152 -220 -75 -57 -132 -73
-250 -72 -84 1 -115 6 -195 33 -110 37 -279 127 -331 177 -55 53 -77 109 -107
266 l-27 143 -33 3 -32 3 0 -315 c0 -303 1 -316 19 -316 13 0 21 10 25 34 4
18 16 42 27 52 35 31 76 21 198 -49 215 -125 360 -170 551 -170 179 -1 309 43
442 148 106 84 175 224 199 401 27 205 -59 416 -239 586 -102 95 -176 145
-476 319 -368 214 -416 267 -424 476 -3 93 -1 124 17 181 39 129 151 216 297
230 188 19 427 -41 522 -132 52 -48 69 -87 97 -218 4 -19 12 -28 25 -28 19 0
20 8 20 265 0 251 -1 265 -18 265 -13 0 -22 -12 -31 -39 -24 -82 -92 -101
-203 -56 -203 83 -428 112 -613 79z"/>
<path d="M31659 7910 c-80 -13 -176 -47 -231 -81 -127 -81 -215 -238 -238
-423 -23 -185 31 -326 183 -480 111 -112 156 -144 457 -326 129 -78 259 -160
288 -182 94 -73 163 -170 201 -285 27 -80 28 -216 3 -288 -26 -74 -88 -162
-146 -205 -80 -59 -135 -75 -251 -74 -85 1 -115 6 -197 34 -111 37 -276 124
-326 172 -58 56 -79 104 -107 248 -35 181 -31 170 -71 170 l-34 0 0 -315 0
-315 25 0 c20 0 25 5 25 24 0 14 10 36 23 50 39 44 63 42 162 -15 330 -191
573 -238 825 -160 140 43 281 159 339 276 53 108 74 211 69 339 -8 189 -69
319 -217 466 -110 109 -163 146 -461 319 -135 79 -268 160 -296 181 -136 102
-185 224 -164 408 11 100 38 164 92 219 108 110 328 137 550 67 181 -57 250
-119 278 -250 5 -27 12 -59 15 -71 3 -15 13 -23 25 -23 19 0 20 8 20 265 0
257 -1 265 -20 265 -14 0 -22 -11 -30 -39 -13 -50 -51 -81 -99 -81 -20 0 -81
16 -136 36 -55 20 -138 44 -185 55 -98 22 -290 32 -371 19z"/>
<path d="M29516 6822 c-225 -587 -418 -1083 -427 -1103 -43 -87 -128 -150
-231 -170 -46 -9 -58 -16 -58 -30 0 -18 14 -19 325 -19 309 0 325 1 325 18 0
15 -13 22 -54 31 -32 7 -64 22 -79 37 -49 49 -47 59 92 423 l129 336 349 3
348 2 128 -333 c70 -184 127 -344 127 -356 0 -58 -46 -101 -122 -115 -29 -5
-38 -12 -38 -26 0 -19 9 -20 365 -20 354 0 365 1 365 19 0 16 -11 22 -57 31
-81 17 -122 41 -179 103 -48 52 -57 72 -243 558 -547 1429 -644 1679 -650
1679 -3 0 -190 -480 -415 -1068z m523 40 c78 -200 141 -365 141 -368 0 -2
-131 -4 -291 -4 -284 0 -291 0 -286 20 19 72 282 738 288 728 4 -7 70 -176
148 -376z"/>
<path d="M12367 7853 c-4 -3 -7 -14 -7 -24 0 -14 15 -20 73 -29 39 -7 86 -18
104 -25 64 -27 61 6 66 -846 3 -736 5 -778 24 -864 41 -183 130 -346 246 -450
75 -68 214 -140 312 -160 97 -20 399 -20 495 0 165 35 307 112 430 235 141
142 227 319 250 515 6 53 10 380 10 800 0 778 -3 737 58 769 15 8 62 19 105
26 70 12 78 15 75 34 -3 21 -5 21 -358 21 -351 0 -355 0 -358 -21 -3 -18 6
-22 90 -37 81 -14 97 -20 121 -47 l27 -30 0 -828 c0 -707 -2 -836 -15 -887
-51 -201 -225 -372 -426 -420 -86 -20 -296 -20 -374 0 -193 51 -352 200 -418
395 -21 65 -22 71 -25 875 -2 546 0 822 7 846 17 58 48 78 145 96 79 14 86 17
86 39 l0 24 -368 0 c-203 0 -372 -3 -375 -7z"/>
<path d="M14750 7836 c0 -22 6 -24 82 -36 69 -11 87 -18 117 -46 l36 -32 3
-1019 c2 -703 0 -1029 -8 -1055 -14 -49 -49 -74 -118 -88 -31 -6 -69 -13 -84
-16 -19 -4 -28 -12 -28 -25 0 -18 12 -19 355 -19 339 0 355 1 355 19 0 15 -15
21 -82 35 -88 17 -125 37 -146 78 -9 20 -12 211 -10 882 l3 855 815 -934 c700
-802 819 -934 842 -934 l28 -1 2 1111 3 1111 36 32 c30 28 48 35 117 46 76 12
82 14 82 36 l0 24 -355 0 -355 0 0 -24 c0 -21 6 -24 78 -36 42 -7 90 -19 105
-27 58 -30 57 -15 57 -829 0 -464 -4 -744 -9 -742 -6 2 -327 368 -715 813
-430 494 -718 817 -738 827 -28 16 -63 18 -250 18 l-218 0 0 -24z"/>
<path d="M17392 7838 c3 -19 14 -24 83 -38 90 -18 117 -30 139 -62 14 -20 16
-138 16 -1058 0 -1003 -1 -1036 -19 -1066 -21 -35 -47 -45 -153 -64 -56 -10
-68 -16 -68 -31 0 -18 14 -19 380 -19 366 0 380 1 380 19 0 16 -14 21 -85 35
-87 16 -128 35 -145 67 -6 11 -10 413 -10 1058 l0 1041 28 30 c23 27 40 33
120 48 84 15 92 19 92 39 l0 23 -381 0 -380 0 3 -22z"/>
<path d="M18202 7838 c3 -20 14 -25 97 -41 103 -20 135 -36 155 -76 8 -14 198
-507 424 -1096 226 -588 418 -1089 427 -1112 l17 -43 67 0 67 0 438 1140 c340
882 443 1143 461 1154 12 8 66 23 119 32 89 16 96 19 96 41 l0 23 -336 0 -335
0 3 -22 c2 -17 14 -24 58 -34 68 -15 100 -50 100 -109 0 -28 -95 -286 -319
-870 -175 -456 -322 -830 -326 -830 -11 0 -645 1677 -645 1708 0 44 54 93 113
102 41 6 47 10 47 31 l0 24 -366 0 -365 0 3 -22z"/>
<path d="M20610 7837 c0 -21 7 -24 79 -36 89 -15 137 -39 151 -77 6 -16 10
-409 10 -1052 0 -995 -1 -1028 -19 -1058 -21 -35 -47 -45 -153 -64 -56 -10
-68 -16 -68 -31 0 -18 22 -19 763 -19 583 1 766 3 778 13 34 26 39 54 39 236
0 172 -1 181 -19 181 -22 0 -24 -6 -41 -103 -10 -52 -19 -75 -42 -97 l-30 -30
-435 0 -435 0 -28 28 c-19 19 -30 44 -35 73 -3 24 -5 234 -3 466 3 390 4 424
21 440 16 16 43 18 262 21 152 2 259 -1 284 -8 51 -13 75 -48 90 -125 7 -33
14 -70 17 -82 3 -15 12 -23 24 -23 20 0 20 8 20 310 0 302 0 310 -20 310 -21
0 -21 0 -41 -105 -14 -76 -23 -91 -62 -115 -30 -18 -52 -20 -293 -20 -253 0
-262 1 -280 21 -18 20 -19 41 -19 376 l0 355 24 19 c22 18 44 19 388 19 453 0
445 2 472 -140 17 -93 20 -100 42 -100 18 0 19 9 19 189 0 186 0 190 -24 218
l-24 28 -706 3 -706 2 0 -23z"/>
<path d="M22362 7839 c3 -21 13 -25 92 -41 49 -10 95 -23 103 -30 44 -36 43
-10 43 -1095 0 -953 -1 -1030 -17 -1053 -27 -40 -43 -47 -135 -65 -73 -15 -88
-21 -88 -36 0 -18 15 -19 375 -19 363 0 375 1 375 19 0 13 -9 21 -27 25 -16 3
-56 10 -90 17 -46 8 -69 19 -90 41 l-28 29 -3 406 c-3 467 -5 453 76 453 l47
0 369 -455 c269 -333 380 -462 410 -480 80 -47 141 -55 398 -55 226 0 238 1
238 19 0 16 -15 21 -97 36 -104 18 -215 62 -269 108 -37 31 -679 824 -679 838
0 6 29 20 65 33 101 35 158 72 251 166 136 136 199 286 199 475 0 187 -64 339
-200 476 -69 70 -101 94 -170 127 -155 76 -148 75 -678 80 l-474 4 4 -23z
m849 -175 c97 -29 171 -74 245 -148 268 -269 193 -703 -151 -867 -93 -44 -197
-62 -340 -57 l-90 3 -3 519 c-2 453 0 522 13 543 15 22 20 23 143 23 89 0 145
-5 183 -16z"/>
<path d="M26190 7837 c0 -21 8 -25 86 -40 48 -9 96 -24 107 -34 48 -43 47 -17
47 -1088 0 -1068 1 -1045 -46 -1087 -14 -12 -155 -48 -190 -48 -2 0 -4 -9 -4
-20 0 -20 7 -20 375 -20 361 0 375 1 375 19 0 15 -12 21 -67 31 -91 16 -119
27 -148 62 l-25 30 0 1028 c0 644 4 1038 10 1054 14 38 62 62 151 76 73 12 79
14 79 36 l0 24 -375 0 -375 0 0 -23z"/>
<path d="M27205 7836 c-25 -25 -25 -26 -25 -226 l0 -201 22 3 c19 3 24 13 34
73 7 39 21 84 30 102 30 58 55 63 317 63 222 0 236 -1 261 -21 l26 -20 0 -984
0 -984 -30 -34 c-26 -31 -40 -37 -120 -52 -75 -15 -90 -21 -90 -36 0 -18 15
-19 375 -19 368 0 375 0 375 20 0 11 -2 20 -4 20 -30 0 -165 34 -183 46 -55
35 -53 5 -53 1048 0 934 1 965 19 987 19 24 21 24 259 27 268 3 296 -2 331
-58 10 -17 22 -55 25 -83 12 -88 16 -97 43 -97 l24 0 -3 205 c-3 180 -5 206
-21 222 -17 17 -65 18 -803 21 l-785 2 -24 -24z"/>
<path d="M13520 4580 c-564 -47 -1009 -426 -1147 -977 -24 -95 -27 -128 -28
-278 0 -184 10 -254 56 -396 80 -249 253 -478 467 -622 94 -63 258 -140 352
-167 270 -75 663 -65 1020 26 92 24 288 112 340 153 l25 20 3 426 c2 379 4
430 19 452 21 32 57 47 151 63 65 12 72 15 72 37 l0 23 -382 -2 c-372 -3 -383
-4 -383 -23 0 -16 13 -22 90 -37 79 -16 94 -22 123 -53 l32 -35 0 -321 c0
-223 -4 -334 -12 -363 -28 -95 -186 -205 -373 -258 -69 -20 -102 -23 -240 -22
-144 0 -169 3 -248 27 -123 38 -206 77 -319 153 -235 156 -420 410 -489 671
-27 100 -37 313 -19 421 69 432 419 815 850 929 131 35 326 38 445 6 166 -45
312 -131 433 -256 95 -99 133 -177 176 -369 5 -24 11 -28 41 -28 l35 0 0 271
0 272 -34 32 c-46 43 -201 119 -306 149 -202 57 -549 93 -750 76z"/>
<path d="M15501 3503 c-217 -566 -408 -1060 -426 -1098 -51 -113 -121 -169
-243 -196 -41 -8 -52 -15 -52 -30 0 -18 11 -19 320 -19 312 0 320 0 320 20 0
13 -9 22 -27 26 -71 15 -96 28 -114 58 -10 17 -19 42 -19 56 0 14 58 174 128
355 l127 330 345 0 345 0 127 -330 c139 -359 142 -374 92 -426 -15 -15 -41
-31 -58 -34 -58 -12 -66 -16 -66 -36 0 -18 11 -19 360 -19 349 0 360 1 360 19
0 20 -8 24 -70 36 -79 16 -155 71 -196 142 -15 24 -210 522 -433 1105 -224
584 -412 1063 -417 1065 -5 2 -186 -459 -403 -1024z m503 27 c76 -195 140
-361 143 -367 4 -10 -57 -13 -287 -13 -173 0 -290 4 -288 9 71 197 285 738
289 733 3 -4 68 -167 143 -362z"/>
<path d="M21197 4518 c-2 -7 -188 -490 -412 -1073 -223 -583 -414 -1071 -422
-1085 -53 -86 -122 -129 -245 -155 -19 -4 -28 -12 -28 -25 0 -20 8 -20 320
-20 312 0 320 0 320 20 0 13 -9 22 -27 26 -98 21 -133 51 -133 112 0 21 50
166 126 364 l127 328 344 -2 345 -3 129 -339 c118 -309 129 -342 119 -371 -15
-47 -48 -73 -108 -85 -41 -9 -52 -16 -52 -31 0 -18 12 -19 365 -19 354 0 365
1 365 19 0 20 -8 24 -70 36 -83 17 -175 87 -213 162 -8 15 -195 498 -415 1073
-220 575 -404 1053 -407 1063 -8 20 -21 22 -28 5z m121 -1008 l138 -355 -285
-3 c-156 -1 -286 0 -288 2 -3 2 60 172 138 377 108 280 145 367 151 353 5 -11
70 -179 146 -374z"/>
<path d="M29931 4508 c-342 -897 -819 -2124 -836 -2154 -43 -74 -117 -123
-215 -143 -44 -9 -71 -8 -133 4 -90 17 -108 25 -136 61 -21 27 -21 29 -21
1051 0 1128 -4 1066 62 1095 18 8 66 21 106 27 60 11 72 16 72 32 0 18 -12 19
-305 19 -332 0 -347 -2 -396 -56 -15 -16 -188 -378 -384 -804 -197 -426 -361
-778 -365 -783 -3 -4 -168 344 -366 773 -244 532 -369 791 -389 812 -54 56
-67 58 -390 58 -284 0 -295 -1 -295 -19 0 -13 9 -21 28 -25 15 -3 53 -10 85
-16 70 -14 105 -42 117 -95 6 -23 10 -454 10 -1015 0 -561 -4 -992 -10 -1015
-13 -56 -45 -80 -127 -95 -97 -17 -103 -19 -103 -41 0 -18 11 -19 355 -19 344
0 355 1 355 19 0 16 -11 22 -57 31 -104 19 -131 30 -157 61 l-26 31 0 1011 1
1012 28 -60 c123 -264 857 -1849 872 -1882 18 -42 20 -43 64 -43 l46 0 59 123
c32 67 230 494 440 947 210 454 385 829 391 835 13 13 12 -1889 -1 -1937 -14
-51 -48 -74 -127 -88 -97 -17 -103 -19 -103 -41 0 -19 15 -19 690 -19 678 0
690 0 690 20 0 14 -11 22 -37 29 -21 6 -43 11 -49 11 -17 0 -53 43 -64 77 -10
29 0 61 118 370 l130 338 345 3 344 2 127 -332 c69 -183 126 -347 126 -364 0
-39 -45 -90 -86 -99 -16 -3 -39 -8 -51 -11 -15 -3 -23 -12 -23 -24 0 -20 8
-20 365 -20 350 0 365 1 365 19 0 15 -14 22 -67 36 -83 20 -119 42 -176 104
-40 46 -68 113 -457 1130 -228 594 -418 1081 -422 1081 -5 0 -12 -10 -17 -22z
m124 -996 c75 -195 135 -355 132 -358 -2 -2 -132 -3 -288 -2 l-285 3 143 370
c78 204 143 372 143 375 2 7 -4 20 155 -388z"/>
<path d="M33921 3478 c-223 -579 -414 -1073 -427 -1098 -26 -53 -100 -125
-149 -146 -19 -8 -57 -19 -85 -25 -39 -8 -50 -15 -50 -30 0 -18 11 -19 320
-19 312 0 320 0 320 20 0 13 -9 22 -27 26 -71 15 -96 28 -114 58 -10 17 -19
42 -19 56 0 26 242 666 258 682 5 5 161 7 347 6 l340 -3 128 -335 c99 -260
127 -342 122 -366 -8 -45 -52 -81 -113 -94 -41 -9 -52 -16 -52 -31 0 -18 12
-19 365 -19 357 0 365 0 365 20 0 13 -9 22 -27 26 -80 18 -102 26 -146 54 -26
16 -62 50 -80 75 -22 32 -163 388 -443 1118 -226 589 -415 1072 -420 1074 -5
2 -191 -471 -413 -1049z m515 44 l142 -367 -285 -3 c-157 -1 -288 -1 -289 1
-2 2 60 170 139 374 78 205 144 370 146 367 3 -2 69 -170 147 -372z"/>
<path d="M17060 4481 c0 -16 11 -22 58 -31 101 -19 130 -30 151 -57 21 -26 21
-32 21 -1065 l0 -1040 -28 -27 c-21 -21 -44 -31 -97 -40 -100 -18 -105 -20
-105 -42 0 -20 7 -20 623 -16 653 4 645 3 797 53 339 110 617 403 716 755 24
84 27 116 31 307 6 241 -3 332 -47 464 -119 356 -406 627 -769 726 l-96 26
-627 4 c-620 3 -628 3 -628 -17z m1137 -192 c204 -28 369 -111 513 -258 198
-204 274 -466 242 -840 -13 -158 -35 -241 -98 -359 -115 -218 -314 -379 -549
-444 -72 -19 -110 -22 -393 -26 -275 -3 -316 -2 -337 12 l-25 16 0 940 0 939
22 15 c19 14 64 16 285 16 144 0 297 -5 340 -11z"/>
<path d="M19410 4481 c0 -13 9 -21 28 -25 15 -3 53 -10 85 -16 39 -8 69 -21
90 -40 l32 -28 3 -904 c3 -966 0 -1076 -44 -1247 -88 -349 -334 -586 -640
-617 l-64 -7 0 -55 0 -55 113 6 c179 10 342 58 475 138 221 134 344 333 404
656 21 115 22 144 28 1104 5 954 6 988 24 1008 20 22 52 33 149 51 46 9 57 15
57 31 0 18 -11 19 -370 19 -358 0 -370 -1 -370 -19z"/>
<path d="M22370 4481 c0 -20 0 -20 143 -47 15 -3 41 -19 57 -36 l30 -30 0
-1038 0 -1038 -35 -31 c-20 -17 -37 -31 -39 -31 -8 0 -124 -22 -138 -26 -10
-3 -18 -14 -18 -25 0 -18 11 -19 370 -19 359 0 370 1 370 19 0 22 -6 24 -103
41 -49 9 -75 20 -97 40 l-30 28 0 561 0 561 653 -2 652 -3 0 -557 0 -556 -24
-26 c-26 -27 -54 -38 -153 -56 -47 -9 -58 -15 -58 -31 0 -18 11 -19 375 -19
363 0 375 1 375 19 0 19 -30 30 -137 47 -43 7 -61 18 -86 54 -16 23 -17 100
-17 1050 0 999 1 1026 20 1057 20 34 38 41 158 64 50 9 62 15 62 30 0 18 -15
19 -375 19 -363 0 -375 -1 -375 -19 0 -13 9 -21 28 -25 15 -3 53 -10 85 -16
39 -8 69 -21 90 -40 l32 -28 3 -411 3 -411 -656 0 -655 0 0 409 c0 397 1 409
21 434 21 27 50 38 152 57 46 9 57 15 57 31 0 18 -11 19 -370 19 -359 0 -370
-1 -370 -19z"/>
<path d="M31100 4481 c0 -15 15 -21 83 -35 86 -17 124 -37 144 -77 10 -19 12
-248 10 -1051 l-2 -1026 -24 -26 c-25 -26 -48 -35 -153 -56 -47 -9 -58 -15
-58 -31 0 -20 7 -20 628 -17 l627 4 97 26 c440 120 762 489 817 933 24 194 9
429 -35 583 -102 350 -380 635 -729 745 -138 43 -202 47 -821 47 -562 0 -584
-1 -584 -19z m1245 -210 c203 -55 389 -185 504 -354 45 -66 105 -198 126 -277
23 -85 32 -415 16 -530 -50 -338 -291 -614 -626 -716 -88 -27 -95 -28 -408
-32 l-319 -4 -24 23 -24 22 0 928 0 928 28 21 c27 22 31 22 337 18 279 -4 318
-7 390 -27z"/>
</g>
</svg>
